<?xml version="1.0" standalone="no"?>
<!DOCTYPE svg PUBLIC "-//W3C//DTD SVG 20010904//EN"
 "http://www.w3.org/TR/2001/REC-SVG-20010904/DTD/svg10.dtd">
<svg version="1.0" xmlns="http://www.w3.org/2000/svg"
 width="848.000000pt" height="847.000000pt" viewBox="0 0 848.000000 847.000000"
 preserveAspectRatio="xMidYMid meet">

<g transform="translate(0.000000,847.000000) scale(0.100000,-0.100000)"
fill="#000000" stroke="none">
<path d="M1 6403 c1 -1150 5 -2006 10 -1928 86 1512 980 2870 2334 3544 504
251 1060 403 1614 440 64 5 -801 9 -1921 10 l-2038 1 1 -2067z"/>
<path d="M4521 8459 c2132 -144 3827 -1856 3948 -3984 5 -78 9 778 10 1928 l1
2067 -2037 -1 c-1121 -1 -1986 -5 -1922 -10z"/>
<path d="M4247 7580 c-15 -5 -78 -46 -140 -93 -321 -241 -699 -407 -1130 -496
-281 -58 -372 -66 -737 -66 -349 0 -444 7 -737 56 -120 20 -124 20 -160 2 -63
-30 -71 -56 -82 -258 -6 -99 -13 -352 -17 -562 l-7 -381 85 -174 c221 -447
532 -870 941 -1279 998 -1000 2332 -1701 3547 -1864 152 -21 557 -30 680 -16
113 12 109 8 198 179 306 589 494 1390 572 2442 l18 245 -26 40 c-113 177
-384 497 -616 731 -293 294 -570 525 -934 782 -175 123 -195 134 -292 157
-113 27 -351 111 -482 170 -198 90 -389 206 -563 343 -58 46 -79 53 -118 42z"/>
<path d="M7025 6980 c-203 -38 -494 -61 -733 -58 -122 2 -222 0 -222 -3 0 -3
28 -26 63 -51 110 -82 390 -319 558 -475 169 -156 374 -368 514 -530 43 -51
82 -93 86 -93 9 0 1 717 -11 943 -11 199 -19 233 -64 262 -37 24 -82 25 -191
5z"/>
<path d="M1345 4399 c133 -941 365 -1631 704 -2086 230 -310 762 -883 1091
-1175 379 -337 815 -650 1063 -763 75 -35 94 -31 230 45 402 223 824 557 1278
1010 204 203 479 497 479 511 0 2 -78 5 -173 6 -796 11 -1737 283 -2582 746
-768 420 -1456 977 -1964 1587 -139 168 -131 161 -126 119z"/>
<path d="M1 2068 l-1 -2068 2038 1 c1120 1 1985 5 1921 10 -2132 144 -3827
1856 -3948 3984 -5 78 -9 -778 -10 -1927z"/>
<path d="M8467 3988 c-24 -539 -180 -1125 -438 -1643 -667 -1341 -2008 -2232
-3508 -2334 -64 -5 801 -9 1922 -10 l2037 -1 0 2065 c0 1136 -2 2065 -3 2065
-2 0 -7 -64 -10 -142z"/>
</g>
</svg>
